<?xml version="1.0" encoding="utf-8"?>
<!-- Generator: Adobe Illustrator 26.5.0, SVG Export Plug-In . SVG Version: 6.00 Build 0)  -->
<svg version="1.0" id="Layer_1" xmlns="http://www.w3.org/2000/svg" xmlns:xlink="http://www.w3.org/1999/xlink" x="0px" y="0px"
	 width="405px" height="285px" viewBox="0 0 405 285" style="enable-background:new 0 0 405 285;" xml:space="preserve">
<style type="text/css">
	.st0{fill:#E84F13;}
</style>
<g>
	<g>
		<g>
			<g>
				<path class="st0" d="M52.6,41.9c4.3-4.6,6.3-9.8,6.3-16.4c0-6.6-2.1-12.1-6.6-16.8c-4.8-4.9-11.7-7.4-20.7-7.4H0V81h13.9V49.7
					H31L45.2,81h15.3L45,47C48.1,45.7,50.7,44,52.6,41.9z M13.9,14.5h17.8c8.8,0,13,3.6,13,11c0,7.3-4.3,10.9-13,10.9H13.9V14.5z"/>
				<polygon class="st0" points="124.9,67.8 84.1,67.8 84.1,46.3 119.9,46.3 119.9,33 84.1,33 84.1,14.5 124.9,14.5 124.9,1.4 
					70.2,1.4 70.2,81 124.9,81 				"/>
				<path class="st0" d="M162.9,82.5c8.1,0,16.3-3.3,21.7-8.7l0,0c4.9-5.1,7.7-11.6,8.1-18.8l0.1-2.3h-14.3l-0.1,2.2
					c-0.1,3.5-1.4,6.9-3.6,9.4c-2.8,3.1-7.3,5-12,5c-4.6,0-9-1.8-12.1-5c-5.3-5.5-5.7-14.3-5.7-22.8c0-8.6,0.4-17.4,5.7-22.8
					c3.1-3.2,7.5-5,12.1-5c4.8,0,9.2,1.8,11.9,4.8c2.3,2.5,3.5,5.7,3.6,9.1l0.1,2.2h14.3l-0.1-2.3c-0.3-7.2-3-13.5-8.1-18.7
					C179.3,3.1,171.2,0,162.9,0c-8.3,0-16.3,3.2-21.9,8.7c-8.9,8.7-10.1,20.8-10.1,32.6c0,11.8,1.2,23.9,10.1,32.6
					C146.6,79.3,154.6,82.5,162.9,82.5z"/>
				<path class="st0" d="M288,49.7h17.1L319.3,81h15.3l-15.5-34c3.1-1.3,5.7-3,7.6-5c4.3-4.6,6.3-9.8,6.3-16.4
					c0-6.6-2.1-12.1-6.6-16.8c-4.8-4.9-11.7-7.4-20.7-7.4h-31.7V81H288V49.7z M288,14.5h17.8c8.8,0,13,3.6,13,11
					c0,7.3-4.3,10.9-13,10.9H288V14.5z"/>
				<path class="st0" d="M394,72.9L394,72.9c9.2-8.8,10.3-21.6,10.3-31.7c0-10.7-1.2-22.9-10.3-31.5c-5.5-5.3-13.1-8.3-21.3-8.3
					h-28.4V81h28.4C380.9,81,388.5,78.1,394,72.9z M372.7,67.8h-14.5V14.5h14.5c4.6,0,8.9,1.6,11.8,4.5c5.1,5.3,5.8,13.8,5.8,22.1
					c0,8.4-0.7,17-5.8,22.2C381.6,66.2,377.3,67.8,372.7,67.8z"/>
			</g>
			<g>
				<path class="st0" d="M121.9,135.6c-1.3-0.2-2.6-0.4-3.9-0.6c-2.8-0.5-5.7-0.9-8.6-1.3c-2.8-0.4-9.3-1.9-9.3-8.4
					c0-2.6,0.8-4.7,2.5-6.7c2.6-3,6.5-4.4,11.7-4.4c5,0,9,1.5,11.6,4.4c1.9,2.1,3,5,3.2,8.1l0.1,2.1h14.3l-0.1-2.3
					c-0.2-6.9-2.9-12.9-7.9-17.7c-5.2-5-12.9-7.8-21-7.8c-8.4,0-15.6,2.7-21.3,8c-4.6,4.4-7.3,10.4-7.3,16.5c0,12,8,20,21.9,22.1
					c2.3,0.4,4.6,0.7,6.8,1c1.6,0.2,3.3,0.5,5.1,0.8c4.9,0.8,10.7,3.1,10.7,9.9c0,3-0.9,5.2-3.1,7.2c-2.7,2.5-6.8,3.7-12.5,3.7
					c-5.4,0-10.3-1.5-12.9-4c-2.8-2.8-4.6-6.7-4.6-10.3v-2.2H83v2.2c0,7.3,3.2,14.5,8.8,19.7c5.6,5.1,13.5,7.8,23,7.8
					c9.2,0,17.6-3,22.9-8.2c4.7-4.5,7-10,7-16.1C144.7,146.6,136,137.6,121.9,135.6z"/>
				<polygon class="st0" points="203.5,102.4 144.8,102.4 144.8,115.7 167.2,115.7 167.2,182 181.2,182 181.2,115.7 203.5,115.7 
									"/>
				<path class="st0" d="M338.4,126.6c0-6.6-2.1-12.1-6.6-16.8c-4.8-4.9-11.7-7.4-20.7-7.4h-31.7V182h13.9v-31.3h17.1l14.2,31.3
					h15.3l-15.5-34c3.1-1.3,5.7-3,7.6-5C336.3,138.4,338.4,133.2,338.4,126.6z M293.3,115.6h17.8c8.8,0,13,3.6,13,11
					c0,7.3-4.3,10.9-13,10.9h-17.8V115.6z"/>
				<polygon class="st0" points="404.3,115.6 404.3,102.4 349.6,102.4 349.6,182 404.3,182 404.3,168.9 363.5,168.9 363.5,147.4 
					399.3,147.4 399.3,134 363.5,134 363.5,115.6 				"/>
			</g>
			<g>
				<path class="st0" d="M247.1,203.4h-28.4V283h28.4c8.2,0,15.8-2.9,21.3-8.1l0,0c9.2-8.8,10.3-21.6,10.3-31.7
					c0-10.7-1.2-22.9-10.3-31.5C262.8,206.3,255.2,203.4,247.1,203.4z M247.1,269.8h-14.5v-53.3h14.5c4.6,0,8.9,1.6,11.8,4.5
					c5.1,5.3,5.8,13.8,5.8,22.1c0,8.4-0.7,17-5.8,22.2C256,268.2,251.7,269.8,247.1,269.8z"/>
				<path class="st0" d="M306.8,203.4L278.7,283H293l6-17.8h29.5l6.1,17.8h14.5l-28.2-79.6H306.8z M323.9,251.8h-20.4l10.1-29.9
					L323.9,251.8z"/>
				<polygon class="st0" points="389.1,203.4 370.8,236.7 352.4,203.4 336.6,203.4 363.5,250.8 363.5,283 377.5,283 377.5,250.8 
					404.3,203.4 				"/>
			</g>
		</g>
	</g>
	<g>
		<path class="st0" d="M242.1,31.2c-6.7,0-12.2,5.5-12.2,12.2s5.5,12.2,12.2,12.2s12.2-5.5,12.2-12.2S248.8,31.2,242.1,31.2z
			 M242.1,45.3c-1.1,0-2-0.9-2-2c0-1.1,0.9-2,2-2s2,0.9,2,2C244.1,44.5,243.2,45.3,242.1,45.3z"/>
		<path class="st0" d="M242.1,0.3c-23.8,0-43.1,19.3-43.1,43.1s19.3,43.1,43.1,43.1s43.1-19.3,43.1-43.1S265.9,0.3,242.1,0.3z
			 M242.1,81.9c-21.2,0-38.5-17.3-38.5-38.5s17.3-38.5,38.5-38.5s38.5,17.3,38.5,38.5S263.4,81.9,242.1,81.9z"/>
		<path class="st0" d="M242.1,9.9c-18.4,0-33.4,15-33.4,33.4s15,33.4,33.4,33.4s33.4-15,33.4-33.4S260.6,9.9,242.1,9.9z M242.1,71.8
			c-15.6,0-28.4-12.7-28.4-28.4S226.5,15,242.1,15s28.4,12.7,28.4,28.4S257.8,71.8,242.1,71.8z"/>
		<path class="st0" d="M242.1,20.1c-12.9,0-23.3,10.5-23.3,23.3s10.5,23.3,23.3,23.3s23.3-10.5,23.3-23.3S255,20.1,242.1,20.1z
			 M242.1,61.6c-10.1,0-18.2-8.2-18.2-18.2s8.2-18.2,18.2-18.2s18.2,8.2,18.2,18.2S252.2,61.6,242.1,61.6z"/>
	</g>
	<g>
		<path class="st0" d="M247.9,132c-6.7,0-12.2,5.5-12.2,12.2c0,6.7,5.5,12.2,12.2,12.2c6.7,0,12.2-5.5,12.2-12.2
			C260,137.4,254.6,132,247.9,132z M247.9,146.1c-1.1,0-2-0.9-2-2s0.9-2,2-2c1.1,0,2,0.9,2,2S249,146.1,247.9,146.1z"/>
		<path class="st0" d="M247.9,101.1c-23.8,0-43.1,19.3-43.1,43.1s19.3,43.1,43.1,43.1s43.1-19.3,43.1-43.1S271.7,101.1,247.9,101.1z
			 M247.9,182.7c-21.2,0-38.5-17.3-38.5-38.5s17.3-38.5,38.5-38.5s38.5,17.3,38.5,38.5S269.1,182.7,247.9,182.7z"/>
		<path class="st0" d="M247.9,110.7c-18.4,0-33.4,15-33.4,33.4s15,33.4,33.4,33.4s33.4-15,33.4-33.4S266.3,110.7,247.9,110.7z
			 M247.9,172.5c-15.6,0-28.4-12.7-28.4-28.4s12.7-28.4,28.4-28.4c15.6,0,28.4,12.7,28.4,28.4S263.5,172.5,247.9,172.5z"/>
		<path class="st0" d="M247.9,120.8c-12.9,0-23.3,10.5-23.3,23.3s10.5,23.3,23.3,23.3s23.3-10.5,23.3-23.3S260.7,120.8,247.9,120.8z
			 M247.9,162.4c-10.1,0-18.2-8.2-18.2-18.2s8.2-18.2,18.2-18.2c10.1,0,18.2,8.2,18.2,18.2S257.9,162.4,247.9,162.4z"/>
	</g>
</g>
</svg>
