<?xml version="1.0" encoding="utf-8"?>
<!-- Generator: Adobe Illustrator 26.5.0, SVG Export Plug-In . SVG Version: 6.00 Build 0)  -->
<svg version="1.0" id="Layer_1" xmlns="http://www.w3.org/2000/svg" xmlns:xlink="http://www.w3.org/1999/xlink" x="0px" y="0px"
	 width="500px" height="500px" viewBox="0 0 500 500" style="enable-background:new 0 0 500 500;" xml:space="preserve">
<style type="text/css">
	.st0{fill:#FFFFFF;}
</style>
<g>
	<path class="st0" d="M462.8,170.1l-24.1,143.1l11.4,8.6l-47.8,63.6l-28.9-21.7l47.8-63.6l7.8,5.8l26-154.2
		C418.1,75.3,340.3,22.5,250,22.5C124.4,22.5,22.5,124.4,22.5,250S124.4,477.5,250,477.5S477.5,375.6,477.5,250
		C477.5,221.8,472.1,195,462.8,170.1z M250,342.9c-51.3,0-92.9-41.6-92.9-92.9s41.6-92.9,92.9-92.9s92.9,41.6,92.9,92.9
		S301.3,342.9,250,342.9z"/>
	<circle class="st0" cx="250" cy="250" r="10.8"/>
</g>
</svg>
