<?xml version="1.0" encoding="utf-8"?>
<!-- Generator: Adobe Illustrator 26.5.0, SVG Export Plug-In . SVG Version: 6.00 Build 0)  -->
<svg version="1.0" id="Layer_1" xmlns="http://www.w3.org/2000/svg" xmlns:xlink="http://www.w3.org/1999/xlink" x="0px" y="0px"
	 width="810px" height="100px" viewBox="0 0 810 100" style="enable-background:new 0 0 810 100;" xml:space="preserve">
<g>
	<g>
		<path d="M5,84V38.7c0-4.1,3.4-7.2,7.6-7.2c3.2,0,6.1,2.1,7,5.2c2.3-2.7,6.1-5.1,13-5.1h5.7c4.1,0,7.2,3.1,7.2,7.2
			c0,4-3.1,7.1-7.2,7.1h-6.9c-8.7,0-11.4,7.7-11.4,12.6V84c0,4.1-3.4,7.2-7.4,7.2C8.4,91.3,5,88.2,5,84z"/>
		<path d="M86.4,67V38.7c0-4,3.2-7.2,7.2-7.2c4,0,7.2,3.2,7.2,7.2V67c0,13.1-8.9,25.2-26.3,25.2c-17.4,0-26.3-12.1-26.3-25.2V38.7
			c0-4,3.2-7.2,7.2-7.2s7.2,3.2,7.2,7.2V67c0,5.8,4.1,11.4,11.9,11.4C82.3,78.5,86.4,72.8,86.4,67z"/>
		<path d="M115.9,91.3c-4,0-7.2-3.2-7.2-7.2V38.7c0-4,3.2-7.2,7.3-7.2c3,0,5.3,1.7,6.4,4.1c3.9-3.1,8.7-5.1,14.4-5.1
			c16.4,0,25.1,11.6,25.1,25.2V84c0,4-3.2,7.2-7.2,7.2c-4,0-7.2-3.2-7.2-7.2V57.5c0-7.2-4.4-13.2-12.2-13.2c-7,0-11.7,4.8-12.2,11
			V84C123.1,88,119.9,91.3,115.9,91.3z"/>
		<path d="M175.8,71.7V45.3h-5c-3.8,0-6.7-2.9-6.7-6.7s2.9-6.7,6.7-6.7h5v-7.8c0-4.1,3.3-7.2,7.2-7.2c4.1,0,7.4,3.1,7.4,7.2v7.8h9.6
			c3.8,0,6.7,2.9,6.7,6.7s-2.9,6.7-6.7,6.7h-9.6v24.7c0,4.7,2.3,7.1,7.2,7.1h1.6c3.9,0,6.9,3,6.9,6.9s-3,6.9-6.9,6.9h-2.3
			C185.3,90.8,175.8,85.2,175.8,71.7z"/>
		<path d="M220.4,5.5c5.8,0,9.9,4.1,9.9,9.6c0,5.6-4.1,9.7-9.9,9.7c-5.7,0-9.8-4.1-9.8-9.7C210.6,9.6,214.7,5.5,220.4,5.5z
			 M212.8,84V38.7c0-4.1,3.4-7.2,7.6-7.2c3.9,0,7.3,3.1,7.3,7.2V84c0,4.1-3.4,7.2-7.4,7.2C216.3,91.3,212.8,88.2,212.8,84z"/>
		<path d="M313.6,84V56.9c0-7.6-4.4-12.7-11.7-12.7c-6.9,0-11.7,4.9-11.7,11.6V84c0,4-3.2,7.2-7.2,7.2s-7.2-3.2-7.2-7.2V56.9
			c0-7.6-4.4-12.7-11.7-12.7c-6.9,0-11.7,4.9-11.7,11.6V84c0,4-3.2,7.2-7.2,7.2c-4,0-7.2-3.2-7.2-7.2V38.7c0-4,3.2-7.2,7.3-7.2
			c2.8,0,5.2,1.7,6.4,4.1c3.7-3.3,8.6-5.1,14.2-5.1c8.4,0,14.6,3,18.6,7.9c4.3-4.8,10.7-7.9,18.9-7.9c15.9,0,24.5,11.3,24.5,24.7V84
			c0,4-3.2,7.2-7.2,7.2S313.6,88,313.6,84z"/>
		<path d="M332.5,61.4c0-15.8,11.1-30.9,31.1-30.9c21,0,29.8,17.6,29.8,29.3c0,4.2-2.1,7.7-7.1,7.7h-38.4c2.1,8.4,8.8,11.2,16,11.2
			c5.6,0,9.4-2.2,12.7-4.8c1.6-1.2,3-2.1,5-2.1c3.9,0,7,3.1,7,7c0,1.7-0.7,3.2-1.8,4.4c-4.2,4.6-11.2,9-22.9,9
			C345.2,92.3,332.5,79,332.5,61.4z M378.1,55.1c-0.9-7-6.9-11.3-14.6-11.3c-9.2,0-13.9,5.2-15.6,11.3H378.1z"/>
	</g>
	<g>
		<path d="M419,84V38.7c0-4.1,3.4-7.2,7.6-7.2c3.2,0,6.1,2.1,7,5.2c2.3-2.7,6.1-5.1,13-5.1h5.7c4.1,0,7.2,3.1,7.2,7.2
			c0,4-3.1,7.1-7.2,7.1h-6.9c-8.7,0-11.4,7.7-11.4,12.6V84c0,4.1-3.4,7.2-7.4,7.2C422.4,91.3,419,88.2,419,84z"/>
		<path d="M458.3,61.4c0-15.8,11.1-30.9,31.1-30.9c21,0,29.8,17.6,29.8,29.3c0,4.2-2.1,7.7-7.1,7.7h-38.4c2.1,8.4,8.8,11.2,16,11.2
			c5.6,0,9.4-2.2,12.7-4.8c1.6-1.2,3-2.1,5-2.1c3.9,0,7,3.1,7,7c0,1.7-0.7,3.2-1.8,4.4c-4.2,4.6-11.2,9-22.9,9
			C471.1,92.3,458.3,79,458.3,61.4z M504,55.1c-0.9-7-6.9-11.3-14.6-11.3c-9.2,0-13.9,5.2-15.6,11.3H504z"/>
		<path d="M521.4,61.4c0-17.4,12.8-30.9,31.3-30.9c12.6,0,20.8,5.9,24.4,11c0.9,1.2,1.4,2.7,1.4,4.3c0,3.9-3.1,7.1-7,7.1
			c-2.3,0-4-1-5.3-2.6c-3.2-3.6-8-6.1-13.6-6.1c-9.1,0-16.2,6.4-16.2,17.1s7.1,17.1,16.2,17.1c5.6,0,10.3-2.6,13.6-6.1
			c1.3-1.6,3-2.6,5.3-2.6c3.9,0,7,3.2,7,7.1c0,1.7-0.6,3.1-1.4,4.3c-3.7,5.1-11.9,11-24.4,11C534.2,92.3,521.4,78.8,521.4,61.4z"/>
		<path d="M649.9,84V38.7c0-4.1,3.4-7.2,7.6-7.2c3.2,0,6.1,2.1,7,5.2c2.3-2.7,6.1-5.1,13-5.1h5.7c4.1,0,7.2,3.1,7.2,7.2
			c0,4-3.1,7.1-7.2,7.1h-6.9c-8.7,0-11.4,7.7-11.4,12.6V84c0,4.1-3.4,7.2-7.4,7.2C653.4,91.3,649.9,88.2,649.9,84z"/>
		<path d="M689.3,61.4c0-17.4,13-30.9,31.8-30.9c6.7,0,12.3,1.7,16.9,4.7V14.3c0-4,3.2-7.2,7.1-7.2c4.1,0,7.3,3.2,7.3,7.2V84
			c0,4-3.2,7.2-7.2,7.2c-2.9,0-5.3-1.7-6.6-4.1c-4.7,3.2-10.6,5.1-17.6,5.1C702.3,92.3,689.3,78.9,689.3,61.4z M721,78.7
			c9.2,0,16.9-6.7,16.9-17.3s-7.7-17.3-16.9-17.3c-9.2,0-16.9,6.7-16.9,17.3S711.8,78.7,721,78.7z"/>
		<path d="M760.2,84.3c-0.8-0.8-2.3-3-2.3-5.2c0-3.9,3.1-6.8,7-6.8c1.8,0,2.9,0.6,4.4,1.4c4.1,2.4,8.9,4.6,13.3,4.6
			c3.3,0,6.6-1.4,6.6-4.6c0-1.8-1-3.6-4.4-4.7l-8.7-2.7c-7.6-2.3-16.2-7.2-16.2-18.1c0-10.2,8.6-17.8,22.1-17.8
			c6.6,0,12.7,1.7,17.3,4.8c2.3,1.6,3.3,3.6,3.3,5.8c0,3.9-3.1,6.8-7,6.8c-1.3,0-3-0.8-4.3-1.4c-3.4-1.8-6.1-2.7-9.3-2.7
			s-6.3,1.4-6.3,4.6c0,2.4,2.8,3.8,5.2,4.6l8.8,2.8c9.2,2.9,15.3,8.4,15.3,18.1c0,10.7-8.4,18.6-22.3,18.6
			C775.2,92.3,765,89,760.2,84.3z"/>
		<path d="M642.8,50.5L639.4,71l1.6,1.2l-6.9,9.1l-4.1-3.1l6.9-9.1l1.1,0.8l3.7-22.1c-5.3-10.9-16.4-18.5-29.3-18.5
			c-18,0-32.6,14.6-32.6,32.6s14.6,32.6,32.6,32.6c18,0,32.6-14.6,32.6-32.6C644.9,57.9,644.2,54,642.8,50.5z M612.3,75.2
			c-7.3,0-13.3-6-13.3-13.3c0-7.3,6-13.3,13.3-13.3c7.3,0,13.3,6,13.3,13.3C625.7,69.3,619.7,75.2,612.3,75.2z"/>
		<circle cx="612.3" cy="61.9" r="2"/>
	</g>
</g>
</svg>
